<svg xmlns="http://www.w3.org/2000/svg" xmlns:xlink="http://www.w3.org/1999/xlink" width="1080" zoomAndPan="magnify" viewBox="0 0 810 809.999993" height="1080" preserveAspectRatio="xMidYMid meet" version="1.0"><defs><g/><clipPath id="8358637d7a"><rect x="0" width="548" y="0" height="810"/></clipPath></defs><g transform="matrix(1, 0, 0, 1, 130, 0.000000000000039746)"><g clip-path="url(#8358637d7a)"><g fill="#ffffff" fill-opacity="1"><g transform="translate(4.85085, 750.67901)"><g><path d="M 237.265625 -552.296875 L 238.28125 -473.53125 L 238.28125 -409.921875 L 454.359375 -409.921875 C 459.742188 -389.734375 462.4375 -367.691406 462.4375 -343.796875 C 462.4375 -319.898438 459.742188 -297.851562 454.359375 -277.65625 L 238.28125 -277.65625 L 238.28125 0 C 216.738281 4.039062 189.8125 6.0625 157.5 6.0625 C 125.195312 6.0625 98.273438 4.039062 76.734375 0 L 76.734375 -683.546875 L 83.796875 -689.609375 L 515.9375 -689.609375 C 519.976562 -672.773438 522 -651.738281 522 -626.5 C 522 -601.257812 515.097656 -582.582031 501.296875 -570.46875 C 487.503906 -558.351562 465.796875 -552.296875 436.171875 -552.296875 Z M 237.265625 -552.296875 "/></g></g></g></g></g></svg>